<?xml version="1.0" standalone="no"?>
<!DOCTYPE svg PUBLIC "-//W3C//DTD SVG 1.1//EN" "http://www.w3.org/Graphics/SVG/1.1/DTD/svg11.dtd">
<svg xmlns="http://www.w3.org/2000/svg">
<metadata>Copyright (C) 2017 by original authors @ fontello.com</metadata>
<defs>
<font id="pwcmobileappicons" horiz-adv-x="1000" >
<font-face font-family="pwcmobileappicons" font-weight="400" font-stretch="normal" units-per-em="1000" ascent="850" descent="-150" />
<missing-glyph horiz-adv-x="1000" />
<glyph glyph-name="clock" unicode="&#xe800;" d="M77 400c-4 4-7 7-11 11-85 85-85 224 0 309 85 85 224 85 309 0 2-2 4-4 6-6-149-43-266-163-304-314z m83-458c-16-27-6-62 21-78 9-5 19-7 29-7 19 0 39 10 49 28l19 34c-33 19-64 43-90 71l-28-48z m311 787c10 0 19 1 29 1 10 0 19-1 29-1v46h30v68h-118v-68h31v-46z m228-280l-181-116c0 0 0 0 0 0-6 2-12 4-18 4-8 0-15-2-22-6l-134 68c-11 6-25 1-31-10-5-11-1-25 10-31l134-68c2-15 11-29 25-35 6-3 12-4 18-4 16 0 32 9 39 25 3 6 4 12 4 18l181 117c10 7 13 21 7 31-7 11-22 14-32 7z m-74 271c-2-2-4-4-6-7 149-42 266-162 304-313 4 4 7 7 11 10 85 86 85 224 0 310-86 85-224 85-309 0z m188-730c-27-28-58-52-91-71l19-34c11-18 30-28 50-28 9 0 19 2 28 7 28 16 37 51 21 78l-27 48z m66 304c0-210-169-380-379-380-210 0-379 170-379 380 0 209 169 379 379 379 210 0 379-170 379-379z m-106 0c0 12 10 23 23 23h28c-12 161-140 289-301 301v-28c0-13-10-23-23-23-13 0-23 10-23 23v28c-161-12-289-140-301-301h28c13 0 23-10 23-23s-10-23-23-23h-28c11-161 140-289 301-301v28c0 13 10 23 23 23 12 0 23-10 23-23v-28c161 12 289 140 300 301h-28c-12 0-22 10-22 23z" horiz-adv-x="1000" />

<glyph glyph-name="arrow" unicode="&#xe801;" d="M657 17l-10 10 336 323-336 323 10 10 346-333-346-333z m312 340h-962v-14h962v14z" horiz-adv-x="1000" />

<glyph glyph-name="setting" unicode="&#xe802;" d="M475 798l0 0c21 0 43-1 65-2 2-9 5-18 6-27 6-34 29-60 63-72 48-17 93-43 136-80 14-13 35-19 60-19 6 0 12 0 19 1 15 2 28 6 39 9 0 0 1 0 1 0 16-21 29-44 40-68-9-9-17-17-25-25-25-25-35-58-28-93 10-48 10-97 0-145-7-34 2-66 27-91 2-2 4-4 7-7 6-6 12-12 18-18-10-25-23-48-39-69-5 1-9 2-14 4-5 1-11 3-16 4l0 0 0 0c-10 3-20 4-30 4-25 0-48-9-68-27-35-32-73-55-112-68-22-7-39-17-52-29-16-17-26-38-29-63 0-1-1-2-1-2-1-3-2-6-3-10l0 0 0 0 0-2c0 0-1 0-1-1-5 0-11 0-16 0-21 0-42 1-63 2-3 9-5 18-6 27h0c-5 25-20 58-67 74-47 16-90 42-132 77-15 13-36 20-63 20-5 0-11 0-17-1-15-1-28-5-40-9-16 22-29 45-39 69 5 4 9 9 14 14 4 4 8 8 12 12 24 25 33 56 26 91l0 0 0 0c-11 48-11 96-1 144 8 36-1 67-26 93-5 4-9 8-14 13-3 4-7 8-11 12 11 26 24 49 39 69 5-1 10-2 15-4 5-1 11-3 17-4 9-3 19-4 28-4 25 0 48 9 68 27 34 31 72 54 112 67 22 7 38 17 51 29 18 17 27 39 30 64 0 1 1 3 2 5 0 2 2 5 2 9 6 0 11 0 16 0m23-712l1 0c71 1 137 28 186 77 48 49 75 115 77 186l0 1 0 1c-2 71-29 137-77 186-49 50-115 77-186 77-71 0-137-27-186-77-48-49-75-115-76-186-1-35 6-70 20-103 13-31 32-60 56-84 49-50 115-78 185-78m-23 762c-7 0-15 0-23 0-32-1-32-3-40-36-2-7-6-15-7-23-2-29-21-42-46-51-49-16-93-43-131-77-11-10-22-14-34-14-5 0-10 0-16 2-17 4-33 10-50 13-1 0-3 0-4 0-6 0-13-2-16-6-29-34-51-73-67-116-4-9-2-15 5-22 13-12 26-26 38-39 13-13 18-28 14-47-12-55-12-110 0-165 4-18 0-32-12-45-14-14-28-27-41-42-4-4-6-13-4-18 15-44 38-83 68-118 3-4 9-6 15-6 1 0 2 0 3 0 17 4 34 11 52 13 4 1 8 1 12 1 12 0 24-2 30-8 45-38 93-67 149-86 17-6 30-17 33-37 4-18 9-35 15-53 2-5 10-12 15-13 30-1 59-3 89-3 6 0 12 0 18 0 37 1 37 3 47 39 2 7 5 13 6 19 2 30 21 43 46 51 49 17 92 44 130 78 12 11 23 15 35 15 6 0 11-1 17-2 17-5 33-10 51-14 1 0 2 0 3 0 5 0 12 2 14 5 30 36 53 75 68 118 2 6 0 15-4 19-12 15-26 28-40 42-13 13-17 27-13 45 11 55 11 110 0 165-4 19 0 34 14 47 13 13 26 27 39 40 3 4 6 8 8 11-2 4-3 7-4 10-16 43-38 82-67 116-3 4-10 6-16 6-1 0-2 0-3 0-18-3-35-11-53-13-4-1-9-1-14-1-10 0-21 2-27 7-45 39-95 70-152 89-15 6-26 16-30 34-3 19-9 37-15 55-1 5-8 11-12 12-31 1-62 3-93 3l0 0z m23-712c-117 0-212 97-211 215 1 119 93 213 212 213 120 0 211-94 213-214-2-120-93-213-213-214-1 0-1 0-1 0l0 0z" horiz-adv-x="1000" />

<glyph glyph-name="survey" unicode="&#xe803;" d="M584-28c8-9 11-21 9-33-1-12-9-22-19-28l-89-52c-6-3-13-5-20-5-14 0-28 7-35 20l-96 167c35 14 85 31 146 46l104-115z m-506 227c-11 19-36 25-55 14-19-11-25-35-14-54l78-136c7-13 20-20 34-20 7 0 14 2 20 5 19 11 25 36 14 55l-77 136z m871-31c-12-6-25-10-40-10-12 0-25 3-38 7-18 4-65 12-135 12-53 0-108-5-164-14-190-30-319-95-320-95-5-3-10-4-15-4-12 0-24 6-30 17l-44 77-44 76c-9 16-4 36 11 46 1 1 122 81 242 231 112 138 147 245 153 264 7 28 21 49 41 61 12 7 25 10 40 10 83 0 204-104 294-261 106-184 128-371 49-417l0 0z m-11 150c-9 70-40 157-87 239-92 160-199 232-245 232-5 0-9 0-12-2-13-8-24-42-17-100 8-71 40-158 87-239 92-161 199-233 245-233 5 0 9 1 12 3 13 7 23 42 17 100l0 0z m-262 248c-1 0-2-1-3-2 8-29 20-59 37-89 17-30 37-56 59-77 1 1 2 1 3 2 46 26 61 85 35 131-27 46-85 62-131 35l0 0z" horiz-adv-x="1000" />

<glyph glyph-name="poll" unicode="&#xe804;" d="M146-98c-24 0-49 4-72 11-15 5-25 17-28 31-2 14 3 29 14 38 29 23 52 51 69 83 8 14 5 30-6 41-78 76-121 173-121 274 0 230 224 418 498 418 274 0 498-188 498-419 0-230-224-418-498-418-52 0-103 7-152 20-12 3-25 0-33-9-45-45-106-70-169-70z m-45 52c15-3 30-5 45-5 50 0 100 20 135 56 21 20 52 29 79 21 45-12 92-18 140-18 248 0 451 167 451 371 0 205-203 372-451 372-249 0-451-167-451-372 0-87 38-172 107-239 26-26 32-65 15-98-18-33-42-62-70-88z m208 252h-70c-33 0-59 27-59 59v115c0 33 26 60 59 60h70c33 0 60-27 60-60v-115c0-32-27-59-60-59z m232 0h-70c-33 0-60 27-60 59v327c0 32 27 59 60 59h70c33 0 59-27 59-59v-327c0-32-27-59-59-59z m220 0h-70c-33 0-60 27-60 59v176c0 33 27 60 60 60h70c33 0 59-27 59-60v-176c0-32-26-59-59-59z m-522 187c-7 0-12-5-12-12v-115c0-7 5-13 12-13h70c7 0 12 6 12 13v115c0 7-5 12-12 12h-70z m232 211c-7 0-13-5-13-12v-327c0-7 6-12 13-12h69c7 0 13 5 13 12v327c0 7-6 12-13 12h-69z m220-150c-7 0-12-6-12-13v-175c0-7 5-13 12-13h70c7 0 12 6 12 13v175c0 7-5 13-12 13h-70z" horiz-adv-x="1000" />

<glyph glyph-name="profile" unicode="&#xe805;" d="M878 197c-54 68-121 118-169 149 50 53 81 126 81 205 0 164-130 297-290 297s-290-133-290-297c0-76 29-147 76-199-63-43-248-185-248-375v-15c0-61 48-110 107-110h355 355c59 0 107 49 107 110v15c0 75-28 149-84 220z m-621 354c0 138 109 249 243 249s243-111 243-249-109-248-243-248-243 111-243 248z m658-589c0-34-27-62-60-62h-355-355c-33 0-60 28-60 62v15c0 133 115 260 231 337 51-41 115-66 184-66 67 0 128 23 178 61 119-74 237-195 237-333v-14z" horiz-adv-x="1000" />

<glyph glyph-name="contact" unicode="&#xe806;" d="M998-20v-8c0-21-16-37-36-37h-411c-20 0-36 16-36 37v8c0 98 57 182 139 221 31-23 69-37 111-37 38 0 74 12 104 32 22-11 41-26 58-43 44-45 71-106 71-173z m-87 372c0-82-65-148-146-148-81 0-146 66-146 148s65 147 146 147c81 0 146-66 146-147z m-426-372v-8c0-21-16-37-36-37h-411c-20 0-36 16-36 37v8c0 98 57 182 139 221 31-23 69-37 111-37 39 0 74 12 104 32 22-11 41-26 59-43 43-45 70-106 70-173z m-91 372c0-82-65-148-146-148-81 0-146 66-146 148s65 147 146 147c81 0 146-66 146-147z m237-123c-29 32-47 75-47 123 0 40 13 77 35 107-2 1-4 2-5 3-30-20-66-32-105-32-41 0-80 14-111 37-2-1-5-2-7-4 24-30 38-69 38-111 0-50-20-95-52-128 13-6 24-14 35-23h176c13 10 28 20 43 28z m25 389c0-82-66-148-147-148-80 0-146 66-146 148s66 147 146 147c81 0 147-66 147-147z" horiz-adv-x="1000" />

<glyph glyph-name="icon_pin_generic" unicode="&#xe807;" d="M419-150c0 0-419 266-419 582 0 231 187 418 419 418 231 0 418-187 418-418 0-316-418-582-418-582z" horiz-adv-x="837" />

<glyph glyph-name="event" unicode="&#xe808;" d="M246 616h14c21 0 39 18 39 40v151c0 22-18 40-39 40h-14c-22 0-40-18-40-40v-151c0-22 18-40 40-40z m502 1h14c22 0 40 17 40 40v151c0 22-18 40-40 40h-14c-21 0-39-18-39-40v-151c0-22 18-40 39-40z m186 149h-101v-120c0-40-31-62-71-62h-14c-39 0-71 33-71 73v109h-346v-110c0-40-32-73-71-73h-14c-40 0-71 33-71 73v110h-109c-35 0-64-29-64-65v-784c0-36 29-65 64-65h868c35 0 64 29 64 65v784c0 36-29 65-64 65z m0-849h-868v592h868v-592l0 0z m-366 306h-89c-31 0-56 26-56 58v87c0 32 25 58 56 58h89c32 0 57-26 57-58v-87c0-32-25-58-57-58z m225 0h-89c-31 0-57 26-57 58v87c0 32 26 58 57 58h89c32 0 57-26 57-58v-87c0-32-25-58-57-58z m-225-225h-89c-31 0-56 26-56 58v86c0 32 25 58 56 58h89c32 0 57-26 57-58v-86c0-32-25-58-57-58z m-228 0h-89c-31 0-57 26-57 58v86c0 32 26 58 57 58h89c31 0 57-26 57-58v-86c0-32-26-58-57-58z m453 0h-89c-31 0-57 26-57 58v86c0 32 26 58 57 58h89c32 0 57-26 57-58v-86c0-32-25-58-57-58z m-314 384c-7 0-14-7-14-15v-86c0-8 7-14 14-14h89c8 0 14 6 14 14v86c0 8-6 15-14 15h-89z m225 0c-7 0-14-7-14-15v-86c0-8 7-14 14-14h89c8 0 14 6 14 14v86c0 8-6 15-14 15h-89z m-225-225c-7 0-14-7-14-15v-86c0-8 7-14 14-14h89c8 0 14 6 14 14v86c0 8-6 15-14 15h-89z m-228 0c-8 0-14-7-14-15v-86c0-8 6-14 14-14h89c8 0 14 6 14 14v86c0 8-6 15-14 15h-89z m453 0c-7 0-14-7-14-15v-86c0-8 7-14 14-14h89c8 0 14 6 14 14v86c0 8-6 15-14 15h-89z" horiz-adv-x="1000" />

<glyph glyph-name="map" unicode="&#xe809;" d="M781 479h-104c-7 0-12-4-15-10l-15-29c-6-12 2-26 15-26h88c11 0 21-7 24-17l62-191-15-17c-3-4-3-10 0-14 19-18 29-34 29-34l6 4 48-146c5-17-7-34-24-34h-760c-17 0-29 17-24 34l52 159c2-2 4-3 6-5l29 47c2 4 1 10-3 12-4 4-8 7-11 10l57 175c3 11 13 18 24 18h88c13 0 21 13 15 25-5 11-10 21-15 30-2 5-8 9-14 9h-105c-19 0-37-13-43-32l-158-485c-10-31 12-62 43-62h878c31 0 53 31 43 61l-158 486c-6 19-23 32-43 32m-187 160c0 53-42 97-94 97-52 0-94-44-94-97s42-96 94-96c52 0 94 43 94 96m63 0c0-26-6-51-17-73l-124-248c-7-13-25-14-32 0-37 74-125 251-126 252-12 27-18 58-14 90 9 74 68 132 140 139 94 10 173-65 173-160m-174-400c-4-3-7-5-11-7-5-3-7-10-4-15l20-37c3-6 9-7 15-4 4 2 9 5 14 8 7 5 15 9 22 14 5 2 7 9 5 14l-19 38c-3 5-9 8-15 5-9-5-17-11-27-16m101 48l17-54c1-4 5-6 9-5 14 4 28 7 42 8 4 1 7 4 7 9l-4 48c-1 5-4 8-8 8-21-3-42-7-63-14m140-55c12-3 24-7 36-12 4-3 9-1 12 4l25 49c-20 10-40 17-60 22-5 1-10-2-11-7l-9-45c-1-5 2-9 7-11m-489-114c14-3 29-5 44-6 7-1 14 6 14 14l1 36c0 7-6 14-13 14-10 1-21 2-31 5-7 1-14-3-16-10l-9-35c-2-8 2-16 10-18m173 81l18-47c3-7-1-15-7-17-15-5-29-10-42-13-7-2-14 3-16 10l-7 37c-2 7 2 14 9 16 15 3 30 8 45 14" horiz-adv-x="1000" />

<glyph glyph-name="pin" unicode="&#xe80a;" d="M500 351c-100 0-180 78-180 174 0 96 80 174 180 174s180-78 180-174c0-96-80-174-180-174m331 177c0 176-148 319-331 319s-331-143-331-319c0-7 0-13 1-20h-1c0 0 1-4 2-10 2-24 7-46 14-68 14-54 39-129 82-198 80-130 233-379 233-379s153 249 233 379c43 70 68 144 82 198 7 22 12 44 14 68 1 7 2 10 2 10h-1c0 7 1 13 1 20" horiz-adv-x="1000" />

<glyph glyph-name="plus" unicode="&#xe80b;" d="M550 400q30 0 30-50t-30-50l-210 0 0-210q0-30-50-30t-50 30l0 210-210 0q-30 0-30 50t30 50l210 0 0 210q0 30 50 30t50-30l0-210 210 0z" horiz-adv-x="580" />

<glyph glyph-name="share" unicode="&#xe80c;" d="M705 105l-347 207c2 11 4 23 4 35 0 12-2 23-4 35l344 205c26-25 61-40 99-40 81 0 147 67 147 150s-66 150-147 150-146-67-146-150c0-12 2-24 4-35l-344-206c-26 25-61 41-100 41-81 0-146-67-146-150s65-150 146-150c39 0 74 16 100 41l347-208c-2-11-4-22-4-33 0-80 64-145 143-145 78 0 142 65 142 145 0 81-64 146-142 146-37 0-70-15-96-38z" horiz-adv-x="1000" />

<glyph glyph-name="kebab" unicode="&#xe80d;" d="M500 600c69 0 125 56 125 125s-56 125-125 125-125-56-125-125 56-125 125-125l0 0z m0-125c-69 0-125-56-125-125s56-125 125-125 125 56 125 125-56 125-125 125l0 0z m0-375c-69 0-125-56-125-125s56-125 125-125 125 56 125 125-56 125-125 125l0 0z" horiz-adv-x="1000" />

<glyph glyph-name="ok" unicode="&#xe80e;" d="M875 588l-535-600-340 338 123 124 196-195 420 457z" horiz-adv-x="875" />

<glyph glyph-name="check-no-circle" unicode="&#xe80f;" d="M293-99l-314 341 42 38 271-295 687 794 42-36-728-842z" horiz-adv-x="1000" />

<glyph glyph-name="ok-circled" unicode="&#xe810;" d="M0 350q0 207 147 354t353 146 354-146 146-354-146-354-354-146-353 146-147 354z m182-57l105-105 104-104 103 104 324 324-103 104-324-325-106 106z" horiz-adv-x="1000" />

<glyph glyph-name="kebab-horizontal" unicode="&#xe811;" d="M90 440c49 0 90-40 90-90s-41-90-90-90-90 40-90 90 40 90 90 90z m410 0c50 0 90-40 90-90s-40-90-90-90-90 40-90 90 40 90 90 90z m410 0c50 0 90-40 90-90s-40-90-90-90-90 40-90 90 41 90 90 90z" horiz-adv-x="1000" />

<glyph glyph-name="collection" unicode="&#xe814;" d="M167 269h250v-38h-250v38z m0-143h250v38h-250v-38z m0-107h250v38h-250v-38z m830 683v-294c0-79-64-144-141-144h-48v-40c0-79-63-144-141-144h-96v-82c0-80-63-145-141-145h-286c-77 0-140 65-140 145v294c0 80 63 144 140 144h96v82c0 80 64 145 141 145h48v39c0 80 63 145 141 145h286c77 0 141-65 141-145z m-494-410c0 41-32 75-73 75h-286c-40 0-73-34-73-75v-294c0-41 33-75 73-75h286c41 0 73 34 73 75v294z m237 226c0 42-33 75-73 75h-286c-40 0-73-33-73-75v-82h122c78 0 141-64 141-144v-143h96c40 0 73 34 73 75v294z m189 184c0 41-33 75-73 75h-286c-40 0-73-34-73-75v-39h170c78 0 141-65 141-145v-185h48c40 0 73 34 73 75v294z" horiz-adv-x="1000" />

<glyph glyph-name="meeting" unicode="&#xe81e;" d="M893 121c-4 8-4 18 3 25 43 43 68 97 68 154 0 132-125 236-278 236-4 0-11 0-15 0-64 78-167 132-289 132-189 0-346-132-346-297 0-71 28-139 85-196 8-7 11-21 4-29-11-21-29-42-46-60-8-7-11-18-11-29 3-11 11-18 18-21 18-7 32-7 50-7 43 0 85 17 118 50 7 7 14 7 25 7 35-11 71-15 107-15 53 0 107 11 150 29 43-25 96-39 150-39 28 0 57 3 85 10 8 4 15 0 18-3 25-25 57-39 93-39 14 0 29 3 39 7 8 3 15 10 15 18 0 7 0 17-7 21-15 14-25 29-36 46z m-507-3c-32 0-65 3-97 14-7 0-10 4-18 4-17 0-35-7-50-22-21-25-53-35-85-35-4 0-7 0-11 0 14 14 29 32 36 50 18 25 10 57-11 78-46 47-71 104-71 164 0 140 135 254 303 254 97 0 182-36 236-93-122-25-211-118-211-228 0-65 32-125 82-168-32-15-68-18-103-18z m468-14c3-11 10-18 17-29-17 4-39 11-50 25-10 11-28 18-46 18-7 0-11 0-18-4-25-7-46-10-71-10-36 0-72 7-104 21-18 7-32 14-46 25-54 36-86 89-86 150 0 96 86 179 200 193 11 0 21 3 36 3 3 0 10 0 14 0 121-7 221-89 221-192 0-47-17-90-53-125-22-22-25-50-14-75z" horiz-adv-x="1000" />

<glyph glyph-name="stream" unicode="&#xe81f;" d="M729 586h-133v135c0 61-50 111-107 111h-218c-60 0-107-50-107-111v-225c0-60 50-110 107-110h133v-72h-133c-60 0-107-50-107-110v-225c0-61 50-111 107-111h218c61 0 107 50 107 111v160h133c60 0 107 50 107 111v225c3 61-47 111-107 111z m-454-150c-32 0-57 25-57 57v228c0 29 25 58 57 58h218c32 0 57-25 57-58v-132h-39c-61 0-107-50-107-110v-40h-129z m275-457c0-33-25-58-57-58h-218c-32 0-57 25-57 58v225c0 32 25 57 57 57h218c32 0 57-25 57-57v-225z m239 271c0-32-25-57-57-57h-136v11c0 60-50 110-107 110h-32v161c0 32 25 57 57 57h218c32 0 57-25 57-57v-225z" horiz-adv-x="1000" />

<glyph glyph-name="angle-left" unicode="&#xf104;" d="M350 546q0-7-6-12l-219-220 219-219q6-6 6-13t-6-13l-28-28q-5-5-12-5t-13 5l-260 261q-6 5-6 12t6 13l260 260q5 6 13 6t12-6l28-28q6-5 6-13z" horiz-adv-x="357.1" />

<glyph glyph-name="angle-right" unicode="&#xf105;" d="M332 314q0-7-5-12l-261-261q-5-5-12-5t-13 5l-28 28q-6 6-6 13t6 13l219 219-219 220q-6 5-6 12t6 13l28 28q5 6 13 6t12-6l261-260q5-5 5-13z" horiz-adv-x="357.1" />

<glyph glyph-name="angle-up" unicode="&#xf106;" d="M600 189q0-7-6-12l-28-28q-5-6-12-6t-13 6l-220 219-219-219q-5-6-13-6t-12 6l-28 28q-6 5-6 12t6 13l260 260q5 6 12 6t13-6l260-260q6-5 6-13z" horiz-adv-x="642.9" />

<glyph glyph-name="angle-down" unicode="&#xf107;" d="M600 439q0-7-6-12l-260-261q-5-5-13-5t-12 5l-260 261q-6 5-6 12t6 13l28 28q5 6 12 6t13-6l219-219 220 219q5 6 13 6t12-6l28-28q6-5 6-13z" horiz-adv-x="642.9" />
</font>
</defs>
</svg>
