<svg width="10px" height="15px" viewBox="0 0 10 15" version="1.1" xmlns="http://www.w3.org/2000/svg" xmlns:xlink="http://www.w3.org/1999/xlink">
    <!-- Generator: Sketch 43.1 (39012) - http://www.bohemiancoding.com/sketch -->
    <desc>Created with Sketch.</desc>
    <defs></defs>
    <g id="Maps" stroke="none" stroke-width="1" fill="none" fill-rule="evenodd">
        <g id="1.0-Level-View---Default-Screen" transform="translate(-203.000000, -99.000000)" fill="#FFFFFF">
            <g id="Group-17" transform="translate(192.000000, 90.000000)">
                <g id="Group-12">
                    <g id="Group-16">
                        <path d="M15.9911945,16.4787821 C14.4890122,16.4787821 13.2714688,15.3044503 13.2714688,13.8561895 C13.2714688,12.4076566 14.4890122,11.2333249 15.9911945,11.2333249 C17.4933767,11.2333249 18.7109201,12.4076566 18.7109201,13.8561895 C18.7109201,15.3044503 17.4933767,16.4787821 15.9911945,16.4787821 M20.9823889,13.8132095 C20.9823889,11.1549817 18.7478752,9 15.9911945,9 C13.2345137,9 11,11.1549817 11,13.8132095 C11,13.9141308 11.0042315,14.014236 11.0104377,14.1137971 L11,14.1137971 C11,14.1137971 11.0067704,14.1687461 11.0228501,14.2685793 C11.0572663,14.6227558 11.1317407,14.9655072 11.2414776,15.2932973 C11.4527704,16.108012 11.8302202,17.229843 12.4753827,18.2798593 C13.6788211,20.2376229 15.9911945,24 15.9911945,24 C15.9911945,24 18.3035678,20.2376229 19.5067241,18.2798593 C20.1521687,17.229843 20.5296185,16.108012 20.7409113,15.2932973 C20.8506482,14.9655072 20.9251226,14.6227558 20.9595388,14.2685793 C20.9756185,14.1687461 20.9823889,14.1137971 20.9823889,14.1137971 L20.9719512,14.1137971 C20.9781574,14.014236 20.9823889,13.9141308 20.9823889,13.8132095" id="Fill-1"></path>
                    </g>
                </g>
            </g>
        </g>
    </g>
</svg>
